<svg xmlns="http://www.w3.org/2000/svg" viewBox="0 0 1647.545 294.66">
    <path d="M365.22 0h1282.325v294.66H365.22V0z" fill="#01509b" />
    <path d="M365.22 0v294.66H0V0h32.49v40.66L365.22 0z" fill="#9d9ea0" />
    <path d="M365.22 0L32.49 40.66V0h332.73z" fill="#dd021a" />
    <path
        d="M215.616 74.007l-23.31 5.82v74.17l-112.69-85.33.04 123.16h23.31v-82.49l112.65 82.33V74.007zm-85.62 153.01c0 1.86-.32 3.17-.96 3.93-.64.75-1.62 1.13-2.96 1.13-1.33 0-2.3-.38-2.91-1.13-.62-.76-.92-2.07-.92-3.93v-11.4h-6.74v10.76c0 3.57.87 6.2 2.61 7.9 1.73 1.7 4.39 2.55 7.96 2.55 3.55 0 6.18-.85 7.87-2.55 1.7-1.7 2.55-4.33 2.55-7.9v-10.76h-6.5v11.4zm-38.12-8.66c-1.1-.9-2.43-1.59-3.99-2.05s-3.27-.69-5.14-.69c-1.89 0-3.61.23-5.16.69s-2.87 1.14-3.97 2.03c-1.1.89-1.98 2.02-2.57 3.3-.61 1.31-.92 2.81-.92 4.49s.31 3.18.92 4.51c.59 1.3 1.47 2.46 2.57 3.37 1.1.91 2.42 1.61 3.97 2.09s3.27.72 5.16.72c1.87 0 3.58-.24 5.14-.72s2.89-1.18 3.99-2.09c1.1-.91 1.98-2.07 2.57-3.37.62-1.33.92-2.83.92-4.51s-.3-3.17-.92-4.47a9.204 9.204 0 0 0-2.57-3.3zm-5.26 12.19c-.94 1.08-2.22 1.62-3.87 1.62-1.64 0-2.93-.54-3.86-1.62-.94-1.08-1.4-2.56-1.4-4.42 0-1.87.46-3.31 1.4-4.33.93-1.01 2.22-1.52 3.86-1.52 1.65 0 2.93.51 3.87 1.52.93 1.02 1.4 2.46 1.4 4.33 0 1.86-.47 3.34-1.4 4.42zm-50.88-38.19h21.3V68.667l-21.3 4.33v119.36zm128.17 23.26h-6.53v21.21h15.87v-4.7h-9.34v-16.51zm-131.42 4.7h6.24v16.51h6.24v-16.51h6.23v-4.7h-18.71v4.7zm295.84-136.43c-6.34-3.83-13.68-6.44-22.01-7.82-8.25-1.38-20.47-2.07-36.64-2.07h-33.01v118.36h29.14v-48.07h13.5c20.09 0 36.05-3.16 47.89-9.5 11.84-6.34 17.76-14.92 17.76-25.76 0-10.12-5.55-18.5-16.63-25.14zm-51.65 43.85h-10.87v-37.26h9.62c27.6 0 41.39 6.11 41.39 18.32 0 12.62-13.38 18.94-40.14 18.94zm15.43 96.94l-3.02-.97c-1.14-.36-2.04-.67-2.69-.93-.65-.26-.97-.64-.97-1.12 0-.46.23-.81.69-1.04.45-.23 1.09-.34 1.91-.34.91 0 1.76.12 2.53.37.78.26 1.59.62 2.43 1.1l3.28-3.39a11.02 11.02 0 0 0-3.91-2.08c-1.41-.43-2.87-.65-4.33-.66-1.35 0-2.59.17-3.73.5-1.13.34-2.1.8-2.92 1.37-.81.58-1.45 1.25-1.91 2.02-.45.74-.69 1.59-.68 2.47 0 .73.13 1.4.4 2.01.27.61.63 1.15 1.09 1.62.45.47.99.88 1.6 1.23.6.34 1.24.62 1.91.83l3.09 1.07c.53.17 1.01.32 1.41.45.36.12.71.26 1.05.43.29.15.52.3.67.47.15.17.24.4.23.63 0 .46-.22.82-.67 1.07-.44.25-1.16.38-2.16.38-.91 0-1.89-.18-2.92-.55-1.01-.36-1.98-.84-2.88-1.43l-3.74 3.71c1.36 1.01 2.89 1.76 4.53 2.22 1.66.47 3.28.71 4.86.71 1.55 0 2.93-.18 4.12-.54 1.2-.36 2.21-.83 3.04-1.43.83-.6 1.46-1.3 1.89-2.09.43-.8.65-1.63.65-2.49 0-1.43-.42-2.59-1.26-3.49-.84-.9-2.04-1.61-3.59-2.11zm31.59 3.66h7.49v-4.69h-7.49v-3.33h8.77v-4.7h-14.85v21.21h15.2v-4.7h-9.12v-3.79zm-71.46-1.32c0 1.86-.32 3.17-.96 3.93-.64.75-1.62 1.13-2.95 1.13s-2.31-.38-2.92-1.13c-.61-.76-.92-2.07-.92-3.93v-11.4h-6.74v10.76c0 3.57.87 6.2 2.61 7.9 1.73 1.7 4.39 2.55 7.97 2.55 3.55 0 6.17-.85 7.87-2.55 1.69-1.7 2.54-4.33 2.54-7.9v-10.76h-6.5v11.4zM431 231.323h922.667v-15.707H431v15.707zm-216.374-12.966c-1.1-.9-2.43-1.59-3.99-2.05s-3.27-.69-5.14-.69c-1.89 0-3.61.23-5.16.69s-2.87 1.14-3.97 2.03c-1.1.89-1.98 2.02-2.57 3.31-.61 1.31-.92 2.8-.92 4.48s.31 3.18.92 4.51c.59 1.3 1.47 2.46 2.57 3.37 1.1.91 2.42 1.61 3.97 2.09s3.27.73 5.16.73c1.87 0 3.58-.25 5.14-.73s2.89-1.18 3.99-2.09c1.1-.91 1.98-2.07 2.57-3.37.62-1.33.92-2.83.92-4.51s-.3-3.17-.92-4.47a9.204 9.204 0 0 0-2.57-3.3zm-5.26 12.19c-.94 1.08-2.22 1.62-3.87 1.62-1.64 0-2.93-.54-3.86-1.62-.94-1.08-1.4-2.56-1.4-4.42 0-1.87.46-3.31 1.4-4.33.93-1.01 2.22-1.52 3.86-1.52 1.65 0 2.93.51 3.87 1.52.93 1.02 1.4 2.46 1.4 4.33 0 1.86-.47 3.34-1.4 4.42zm319.268-63.025h-73.399v-32.54h62.857V115.86h-62.857V82.984h70.666V64.366H431.42v122.279h97.214v-19.123zm47.433-56.526l-.586-5.367c.65.783 1.43 1.651 2.343 2.6.909.95 1.43 1.538 1.561 1.761.91 1.006 2.895 2.825 5.954 5.451 3.057 2.63 6.832 5.816 11.322 9.56a1955.2 1955.2 0 0 0 14.934 12.329c5.466 4.475 11.06 9.032 16.788 13.67a4695.339 4695.339 0 0 1 16.885 13.755c5.53 4.53 10.572 8.667 15.129 12.413 4.554 3.747 8.394 6.96 11.517 9.644 3.124 2.684 5.14 4.529 6.052 5.536V64.366H654.15v73.97l.586 5.704-3.71-4.696c-.911-1.007-2.897-2.794-5.953-5.368-3.06-2.57-6.866-5.674-11.42-9.309a2831.36 2831.36 0 0 1-15.03-12.077 2097.396 2097.396 0 0 0-16.789-13.42 16663.76 16663.76 0 0 0-16.885-13.334 1441.454 1441.454 0 0 1-15.129-12.077 800.488 800.488 0 0 1-11.517-9.477c-3.123-2.626-5.142-4.445-6.052-5.451v127.814h23.816v-75.649zm195.891 48.644c-2.538 2.125-5.563 3.802-9.077 5.03a51.028 51.028 0 0 1-10.835 2.517c-3.71.449-6.734.671-9.077.671-4.816 0-10.346-.697-16.593-2.096-6.246-1.398-12.103-3.381-17.568-5.955l-10.346 17.948c2.08 1.119 4.554 2.264 7.417 3.438 2.862 1.174 6.15 2.265 9.859 3.27 3.709 1.008 7.906 1.846 12.59 2.517 4.686.671 9.89 1.006 15.617 1.006 9.37 0 17.535-.867 24.498-2.6 6.961-1.732 12.72-4.164 17.277-7.296 4.553-3.13 7.97-6.877 10.248-11.238 2.275-4.36 3.417-9.226 3.417-14.593 0-6.932-1.727-12.635-5.174-17.109-3.45-4.471-7.777-8.162-12.982-11.07-5.206-2.907-10.833-5.284-16.884-7.129a504.525 504.525 0 0 1-16.886-5.452c-5.207-1.787-9.535-3.8-12.981-6.038-3.45-2.235-5.173-5.143-5.173-8.723 0-4.135 2.308-7.548 6.93-10.231 4.618-2.684 10.898-4.026 18.837-4.026 4.554 0 9.498.503 14.836 1.51a149.873 149.873 0 0 1 16.202 4.026l8.59-16.774c-.522-.11-2.02-.587-4.49-1.426-2.474-.839-5.598-1.703-9.37-2.6-3.777-.893-8.037-1.703-12.786-2.432-4.752-.725-9.663-1.09-14.739-1.09-8.07 0-15.065 1.006-20.985 3.019-5.923 2.014-10.867 4.641-14.835 7.884-3.972 3.245-6.93 6.906-8.883 10.986-1.951 4.084-2.927 8.248-2.927 12.497 0 5.928 1.723 10.818 5.172 14.677 3.447 3.857 7.775 7.102 12.982 9.728 5.203 2.628 10.834 4.893 16.885 6.793 6.052 1.903 11.68 3.832 16.885 5.787 5.204 1.957 9.533 4.194 12.982 6.71 3.447 2.516 5.173 5.73 5.173 9.644 0 3.355-1.269 6.097-3.806 8.22zm147.48 7.882h-73.399v-32.54h62.857V115.86H846.04V82.984h70.665V64.366h-94.48v122.279h97.213v-19.123zm120.832 0H966.87v-32.54h62.858V115.86H966.87V82.984h70.665V64.366h-94.48v122.279h97.214v-19.123zm47.627-103.156h-24.01v122.279h24.01V64.366zm56.803 70.616h67.933v51.663h24.01v-33.463c0-8.665.03-17.89.098-27.677.064-9.783.098-19.009.098-27.676V64.366h-24.206v50.991H1144.7v-50.99h-24.01v122.278h24.01v-51.663zm461.036-21.192l-13.63 9.312c-7.262 4.961-14.594 9.768-22.028 14.246-4.803 2.887-9.654 5.637-14.532 8.169l20.852-63.196a10.8 10.8 0 0 0 .328-5.454c-1.164-5.781-6.795-9.524-12.576-8.36l-5.48 1.103c-.369.074-.93.306-1.809.54l-.62.181-.71.176-.706.18-.77.169c-2.05.452-4.313.848-6.64 1.185-4.676.668-9.59 1.138-14.549 1.5-4.968.353-9.994.601-15.038.766-2.52.084-5.047.146-7.569.188l-3.775.046-3.672.002-16.542.008 2.557 35.43 16.36-2.524 4.104-.633 3.994-.663c2.654-.453 5.302-.926 7.949-1.423a420.35 420.35 0 0 0 15.9-3.28c4.255-.977 8.522-2.037 12.853-3.269l-9.1 54.141c-5.373 2.178-10.712 3.946-15.711 4.92-1.738.32-3.449.583-4.983.663-1.584.141-2.95.062-4.1-.053a10.118 10.118 0 0 1-2.265-.48c-.996-2.738-2.137-5.524-3.6-8.424a46.184 46.184 0 0 0-3.635-6.1c-1.513-2.098-3.34-4.367-6.314-6.574-1.528-1.085-3.24-2.14-5.413-2.89-1.02-.398-2.21-.656-3.346-.877-1.161-.154-2.374-.296-3.521-.234-2.376.03-4.472.563-6.348 1.217-.862.343-1.797.716-2.521 1.12l-1.14.619-.797.505c0-.52.003-1.038-.006-1.565-.044-1.812-.144-3.664-.393-5.635-.263-1.977-.615-4.05-1.515-6.5a17.117 17.117 0 0 0-2.079-3.996c-.995-1.424-2.625-3.04-4.748-4.06-1.057-.534-2.194-.845-3.299-1.041a19.66 19.66 0 0 0-1.598-.144c-.521-.02-.964.023-1.45.055l-.707.068-.615.114c-.406.082-.82.17-1.214.27-.674.218-1.44.45-2.018.713-.578.261-1.223.532-1.704.816l-1.337.747-1.653.93c-.578.316-1.294.63-1.935.947-.671.312-1.29.643-2.005.944l-4.219 1.826-4.33 1.765c-5.837 2.3-11.76 4.53-17.733 6.678-11.937 4.32-23.999 8.445-36.085 12.502-22.163 7.428-44.44 14.603-66.751 21.678V83.991h35.137V64.366h-93.504v19.625h34.356V170.4c-18.407 5.764-36.831 11.482-55.288 17.1 18.446-4.304 36.872-8.709 55.288-13.159v12.305h24.01v-18.13c23.25-5.706 46.475-11.516 69.659-17.613 12.379-3.261 24.743-6.594 37.096-10.159a645.61 645.61 0 0 0 18.544-5.614l4.656-1.548 4.696-1.673c.777-.269 1.6-.627 2.397-.938.815-.336 1.583-.614 2.437-1.002l1.353-.647c.025.269.046.548.06.833.068 1.206.057 2.55-.005 3.929-.263 5.572-1.268 11.64-2.46 17.63-1.216 6.018-2.682 12.066-4.283 18.092a422.89 422.89 0 0 1-3.881 13.64c-.408 1.26-.801 2.515-1.22 3.914l.003.001c-.036.113-.072.23-.109.343-1.63 5.112 1.013 10.684 6.093 12.589 5.241 1.965 11.084-.69 13.05-5.932l.27-.72a184.09 184.09 0 0 1 1.75-4.474c.615-1.522 1.251-3.04 1.904-4.547a190.554 190.554 0 0 1 4.11-8.889c1.437-2.895 2.94-5.725 4.522-8.39 1.576-2.665 3.245-5.19 4.934-7.308a31.544 31.544 0 0 1 1.529-1.783c.215.44.434.917.644 1.448.97 2.298 1.85 5.1 2.61 8.017.059.223.14.478.227.698l.064.16.172.435.15.349.172.38a19.781 19.781 0 0 0 .93 1.75l.582.928.581.824a23.414 23.414 0 0 0 2.44 2.832c1.676 1.651 3.467 3.017 5.245 4.047 3.588 2.134 7.149 3.279 10.464 3.97 3.316.672 6.501.968 9.456.957 3.006.042 5.82-.191 8.575-.506a98.973 98.973 0 0 0 6.436-1.059l-7.651 45.52 15.637-47.39c5.284-1.443 10.32-3.187 15.249-5.044 9.167-3.517 17.853-7.586 26.3-11.925 8.441-4.348 16.634-8.976 24.708-13.743l14.219-8.393-18.377-28.714zm-142.375 14.376a.053.053 0 0 1-.027.001.673.673 0 0 1-.11.034c-.037.007-.1.01-.175.013.034-.01.067-.017.103-.033.152-.063.17-.011.249-.053-.004.016-.025.035-.04.038zm26.2 27.882a1.54 1.54 0 0 1-.356.139 2.37 2.37 0 0 1 .404-.224.44.44 0 0 0 .092-.042c.007.015.01.03.01.03.027-.023-.081.089-.15.097zm24.922 3.201l.07.179.29.858c-.115-.344-.241-.692-.36-1.037z"
        fill="#fff" />
</svg>
