<?xml version="1.0" encoding="UTF-8" standalone="no"?>
<!DOCTYPE svg PUBLIC "-//W3C//DTD SVG 1.1//EN"
 "http://www.w3.org/Graphics/SVG/1.1/DTD/svg11.dtd">
<!-- Generated by graphviz version 2.47.0 (20210316.0004)
 -->
<!-- Title: dbml Pages: 1 -->
<svg width="1535pt" height="640pt"
 viewBox="0.00 0.00 1535.23 640.08" xmlns="http://www.w3.org/2000/svg" xmlns:xlink="http://www.w3.org/1999/xlink">
<g id="graph0" class="graph" transform="scale(1 1) rotate(0) translate(4 636.08)">
<title>dbml</title>
<!-- Pays -->
<g id="Pays" class="node">
<title>Pays</title>
<ellipse fill="none" stroke="black" stroke-width="0" cx="1352.57" cy="-397.21" rx="174.81" ry="130.22"/>
<polygon fill="#1d71b8" stroke="transparent" points="1231.57,-427.21 1231.57,-487.21 1474.57,-487.21 1474.57,-427.21 1231.57,-427.21"/>
<polygon fill="none" stroke="#29235c" points="1231.57,-427.21 1231.57,-487.21 1474.57,-487.21 1474.57,-427.21 1231.57,-427.21"/>
<text text-anchor="start" x="1255.26" y="-448.41" font-family="Helvetica,sans-Serif" font-weight="bold" font-size="32.00" fill="#ffffff"> &#160;&#160;&#160;&#160;&#160;&#160;Pays &#160;&#160;&#160;&#160;&#160;&#160;</text>
<polygon fill="#e7e2dd" stroke="transparent" points="1231.57,-367.21 1231.57,-427.21 1474.57,-427.21 1474.57,-367.21 1231.57,-367.21"/>
<polygon fill="none" stroke="#29235c" points="1231.57,-367.21 1231.57,-427.21 1474.57,-427.21 1474.57,-367.21 1231.57,-367.21"/>
<text text-anchor="start" x="1242.57" y="-388.41" font-family="Helvetica,sans-Serif" font-weight="bold" font-size="32.00" fill="#29235c">id</text>
<text text-anchor="start" x="1267.46" y="-388.41" font-family="Helvetica,sans-Serif" font-size="32.00" fill="#29235c"> &#160;&#160;&#160;</text>
<text text-anchor="start" x="1365.77" y="-388.41" font-family="Helvetica,sans-Serif" font-style="italic" font-size="32.00" fill="#29235c">integer</text>
<polygon fill="#e7e2dd" stroke="transparent" points="1231.57,-307.21 1231.57,-367.21 1474.57,-367.21 1474.57,-307.21 1231.57,-307.21"/>
<polygon fill="none" stroke="#29235c" points="1231.57,-307.21 1231.57,-367.21 1474.57,-367.21 1474.57,-307.21 1231.57,-307.21"/>
<text text-anchor="start" x="1242.28" y="-327.41" font-family="Helvetica,sans-Serif" font-size="32.00" fill="#29235c">name &#160;&#160;&#160;</text>
<text text-anchor="start" x="1357.23" y="-328.41" font-family="Helvetica,sans-Serif" font-style="italic" font-size="32.00" fill="#29235c">varchar</text>
<polygon fill="none" stroke="#29235c" stroke-width="2" points="1230.07,-306.21 1230.07,-488.21 1475.07,-488.21 1475.07,-306.21 1230.07,-306.21"/>
</g>
<!-- Departement -->
<g id="Departement" class="node">
<title>Departement</title>
<ellipse fill="none" stroke="black" stroke-width="0" cx="905.03" cy="-307.21" rx="236.76" ry="257.27"/>
<polygon fill="#1d71b8" stroke="transparent" points="740.03,-427.21 740.03,-487.21 1071.03,-487.21 1071.03,-427.21 740.03,-427.21"/>
<polygon fill="none" stroke="#29235c" points="740.03,-427.21 740.03,-487.21 1071.03,-487.21 1071.03,-427.21 740.03,-427.21"/>
<text text-anchor="start" x="750.82" y="-448.41" font-family="Helvetica,sans-Serif" font-weight="bold" font-size="32.00" fill="#ffffff"> &#160;&#160;&#160;&#160;&#160;&#160;Departement &#160;&#160;&#160;&#160;&#160;&#160;</text>
<polygon fill="#e7e2dd" stroke="transparent" points="740.03,-367.21 740.03,-427.21 1071.03,-427.21 1071.03,-367.21 740.03,-367.21"/>
<polygon fill="none" stroke="#29235c" points="740.03,-367.21 740.03,-427.21 1071.03,-427.21 1071.03,-367.21 740.03,-367.21"/>
<text text-anchor="start" x="751.03" y="-388.41" font-family="Helvetica,sans-Serif" font-weight="bold" font-size="32.00" fill="#29235c">id</text>
<text text-anchor="start" x="775.92" y="-388.41" font-family="Helvetica,sans-Serif" font-size="32.00" fill="#29235c"> &#160;&#160;&#160;</text>
<text text-anchor="start" x="962.23" y="-388.41" font-family="Helvetica,sans-Serif" font-style="italic" font-size="32.00" fill="#29235c">integer</text>
<polygon fill="#e7e2dd" stroke="transparent" points="740.03,-307.21 740.03,-367.21 1071.03,-367.21 1071.03,-307.21 740.03,-307.21"/>
<polygon fill="none" stroke="#29235c" points="740.03,-307.21 740.03,-367.21 1071.03,-367.21 1071.03,-307.21 740.03,-307.21"/>
<text text-anchor="start" x="751.03" y="-327.41" font-family="Helvetica,sans-Serif" font-size="32.00" fill="#29235c">name &#160;&#160;&#160;</text>
<text text-anchor="start" x="953.36" y="-328.41" font-family="Helvetica,sans-Serif" font-style="italic" font-size="32.00" fill="#29235c">varchar</text>
<polygon fill="#e7e2dd" stroke="transparent" points="740.03,-247.21 740.03,-307.21 1071.03,-307.21 1071.03,-247.21 740.03,-247.21"/>
<polygon fill="none" stroke="#29235c" points="740.03,-247.21 740.03,-307.21 1071.03,-307.21 1071.03,-247.21 740.03,-247.21"/>
<text text-anchor="start" x="751.03" y="-267.41" font-family="Helvetica,sans-Serif" font-size="32.00" fill="#29235c">number &#160;&#160;&#160;</text>
<text text-anchor="start" x="953.36" y="-268.41" font-family="Helvetica,sans-Serif" font-style="italic" font-size="32.00" fill="#29235c">varchar</text>
<polygon fill="#e7e2dd" stroke="transparent" points="740.03,-187.21 740.03,-247.21 1071.03,-247.21 1071.03,-187.21 740.03,-187.21"/>
<polygon fill="none" stroke="#29235c" points="740.03,-187.21 740.03,-247.21 1071.03,-247.21 1071.03,-187.21 740.03,-187.21"/>
<text text-anchor="start" x="751.03" y="-207.41" font-family="Helvetica,sans-Serif" font-size="32.00" fill="#29235c">pays_id &#160;&#160;&#160;</text>
<text text-anchor="start" x="962.23" y="-208.41" font-family="Helvetica,sans-Serif" font-style="italic" font-size="32.00" fill="#29235c">integer</text>
<polygon fill="#e7e2dd" stroke="transparent" points="740.03,-127.21 740.03,-187.21 1071.03,-187.21 1071.03,-127.21 740.03,-127.21"/>
<polygon fill="none" stroke="#29235c" points="740.03,-127.21 740.03,-187.21 1071.03,-187.21 1071.03,-127.21 740.03,-127.21"/>
<text text-anchor="start" x="793.5" y="-148.41" font-family="Helvetica,sans-Serif" font-style="italic" font-size="32.00" fill="#1d71b8"> &#160;&#160;&#160;id, pays_id &#160;&#160;&#160;</text>
<polygon fill="none" stroke="#29235c" stroke-width="2" points="738.53,-126.21 738.53,-488.21 1071.53,-488.21 1071.53,-126.21 738.53,-126.21"/>
</g>
<!-- Departement&#45;&gt;Pays -->
<!-- Departement&#45;&gt;Pays -->
<g id="edge6" class="edge">
<title>Departement:e&#45;&gt;Pays:w</title>
<path fill="none" stroke="#29235c" stroke-width="3" d="M1072.03,-217.21C1175.1,-217.21 1127.42,-385.45 1220.47,-396.62"/>
<polygon fill="#29235c" stroke="#29235c" stroke-width="3" points="1220.39,-400.13 1230.57,-397.21 1220.79,-393.14 1220.39,-400.13"/>
<text text-anchor="middle" x="1221.68" y="-406.81" font-family="Helvetica,sans-Serif" font-size="32.00" fill="#29235c">1</text>
<text text-anchor="middle" x="1065.81" y="-226.81" font-family="Helvetica,sans-Serif" font-size="32.00" fill="#29235c">*</text>
</g>
<!-- Commune -->
<g id="Commune" class="node">
<title>Commune</title>
<ellipse fill="none" stroke="black" stroke-width="0" cx="316.08" cy="-307.21" rx="316.15" ry="299.63"/>
<polygon fill="#1d71b8" stroke="transparent" points="95.08,-457.21 95.08,-517.21 538.08,-517.21 538.08,-457.21 95.08,-457.21"/>
<polygon fill="none" stroke="#29235c" points="95.08,-457.21 95.08,-517.21 538.08,-517.21 538.08,-457.21 95.08,-457.21"/>
<text text-anchor="start" x="180.55" y="-478.41" font-family="Helvetica,sans-Serif" font-weight="bold" font-size="32.00" fill="#ffffff"> &#160;&#160;&#160;&#160;&#160;&#160;Commune &#160;&#160;&#160;&#160;&#160;&#160;</text>
<polygon fill="#e7e2dd" stroke="transparent" points="95.08,-397.21 95.08,-457.21 538.08,-457.21 538.08,-397.21 95.08,-397.21"/>
<polygon fill="none" stroke="#29235c" points="95.08,-397.21 95.08,-457.21 538.08,-457.21 538.08,-397.21 95.08,-397.21"/>
<text text-anchor="start" x="106.08" y="-418.41" font-family="Helvetica,sans-Serif" font-weight="bold" font-size="32.00" fill="#29235c">id</text>
<text text-anchor="start" x="130.97" y="-418.41" font-family="Helvetica,sans-Serif" font-size="32.00" fill="#29235c"> &#160;&#160;&#160;</text>
<text text-anchor="start" x="429.28" y="-418.41" font-family="Helvetica,sans-Serif" font-style="italic" font-size="32.00" fill="#29235c">integer</text>
<polygon fill="#e7e2dd" stroke="transparent" points="95.08,-337.21 95.08,-397.21 538.08,-397.21 538.08,-337.21 95.08,-337.21"/>
<polygon fill="none" stroke="#29235c" points="95.08,-337.21 95.08,-397.21 538.08,-397.21 538.08,-337.21 95.08,-337.21"/>
<text text-anchor="start" x="106.08" y="-357.41" font-family="Helvetica,sans-Serif" font-size="32.00" fill="#29235c">name &#160;&#160;&#160;</text>
<text text-anchor="start" x="420.4" y="-358.41" font-family="Helvetica,sans-Serif" font-style="italic" font-size="32.00" fill="#29235c">varchar</text>
<polygon fill="#e7e2dd" stroke="transparent" points="95.08,-277.21 95.08,-337.21 538.08,-337.21 538.08,-277.21 95.08,-277.21"/>
<polygon fill="none" stroke="#29235c" points="95.08,-277.21 95.08,-337.21 538.08,-337.21 538.08,-277.21 95.08,-277.21"/>
<text text-anchor="start" x="106.08" y="-297.41" font-family="Helvetica,sans-Serif" font-size="32.00" fill="#29235c">code &#160;&#160;&#160;</text>
<text text-anchor="start" x="420.4" y="-298.41" font-family="Helvetica,sans-Serif" font-style="italic" font-size="32.00" fill="#29235c">varchar</text>
<polygon fill="#e7e2dd" stroke="transparent" points="95.08,-217.21 95.08,-277.21 538.08,-277.21 538.08,-217.21 95.08,-217.21"/>
<polygon fill="none" stroke="#29235c" points="95.08,-217.21 95.08,-277.21 538.08,-277.21 538.08,-217.21 95.08,-217.21"/>
<text text-anchor="start" x="106.08" y="-237.41" font-family="Helvetica,sans-Serif" font-size="32.00" fill="#29235c">departement_id &#160;&#160;&#160;</text>
<text text-anchor="start" x="429.28" y="-238.41" font-family="Helvetica,sans-Serif" font-style="italic" font-size="32.00" fill="#29235c">integer</text>
<polygon fill="#e7e2dd" stroke="transparent" points="95.08,-157.21 95.08,-217.21 538.08,-217.21 538.08,-157.21 95.08,-157.21"/>
<polygon fill="none" stroke="#29235c" points="95.08,-157.21 95.08,-217.21 538.08,-217.21 538.08,-157.21 95.08,-157.21"/>
<text text-anchor="start" x="106.08" y="-177.41" font-family="Helvetica,sans-Serif" font-size="32.00" fill="#29235c">pays_id &#160;&#160;&#160;</text>
<text text-anchor="start" x="429.28" y="-178.41" font-family="Helvetica,sans-Serif" font-style="italic" font-size="32.00" fill="#29235c">integer</text>
<polygon fill="#e7e2dd" stroke="transparent" points="95.08,-97.21 95.08,-157.21 538.08,-157.21 538.08,-97.21 95.08,-97.21"/>
<polygon fill="none" stroke="#29235c" points="95.08,-97.21 95.08,-157.21 538.08,-157.21 538.08,-97.21 95.08,-97.21"/>
<text text-anchor="start" x="105.84" y="-118.41" font-family="Helvetica,sans-Serif" font-style="italic" font-size="32.00" fill="#1d71b8"> &#160;&#160;&#160;departement_id, pays_id &#160;&#160;&#160;</text>
<polygon fill="none" stroke="#29235c" stroke-width="2" points="93.58,-96.21 93.58,-518.21 538.58,-518.21 538.58,-96.21 93.58,-96.21"/>
</g>
<!-- Commune&#45;&gt;Pays -->
<!-- Commune&#45;&gt;Pays -->
<g id="edge4" class="edge">
<title>Commune:e&#45;&gt;Pays:w</title>
<path fill="none" stroke="#29235c" stroke-width="3" d="M539.08,-187.21C625.69,-187.21 589.19,-76.79 668.15,-41.21 764.14,2.05 1058.96,23.62 1141.92,-41.21 1267.63,-139.45 1076.08,-386.3 1220.56,-396.86"/>
<polygon fill="#29235c" stroke="#29235c" stroke-width="3" points="1220.45,-400.35 1230.57,-397.21 1220.7,-393.36 1220.45,-400.35"/>
<text text-anchor="middle" x="1239.46" y="-406.81" font-family="Helvetica,sans-Serif" font-size="32.00" fill="#29235c">1</text>
<text text-anchor="middle" x="532.85" y="-196.81" font-family="Helvetica,sans-Serif" font-size="32.00" fill="#29235c">*</text>
</g>
<!-- Commune&#45;&gt;Departement -->
<!-- Commune&#45;&gt;Departement -->
<g id="edge2" class="edge">
<title>Commune:e&#45;&gt;Departement:w</title>
<path fill="none" stroke="#29235c" stroke-width="3" d="M539.08,-127.21C625.43,-127.21 647.48,-154.91 728.81,-157.07"/>
<polygon fill="#29235c" stroke="#29235c" stroke-width="3" points="728.99,-160.58 739.03,-157.21 729.08,-153.58 728.99,-160.58"/>
<text text-anchor="middle" x="730.14" y="-128.41" font-family="Helvetica,sans-Serif" font-size="32.00" fill="#29235c">1</text>
<text text-anchor="middle" x="532.85" y="-98.41" font-family="Helvetica,sans-Serif" font-size="32.00" fill="#29235c">*</text>
</g>
</g>
</svg>
