<?xml version="1.0" encoding="UTF-8"?>
<svg id="Calque_1" data-name="Calque 1" xmlns="http://www.w3.org/2000/svg" viewBox="0 0 682 322">
    <defs>
        <style>
            .cls-1 {
                fill: #0047ba;
            }

            .cls-1,
            .cls-2 {
                stroke-width: 0px;
            }

            .cls-2 {
                fill: #2a2d46;
            }
        </style>
    </defs>
    <g id="Toulouse_INP" data-name="Toulouse INP">
        <path class="cls-2"
            d="M345.62,110.61h-38.55c-12.85,0-23.27,10.42-23.27,23.27v128.55h29.64v-124.27h32.64c19.68,0,26.39,10.18,26.39,23.84s-6.71,24.08-26.39,24.08h-20.59v27.32h20.13c39.36,0,56.95-21.76,56.95-51.4s-17.6-51.4-56.95-51.4" />
        <rect class="cls-2" x="59.25" y="110.23" width="27.55" height="152.2" />
        <path class="cls-1" d="M59.29,92.53h27.55v-33.27c-15.22,0-27.55,12.33-27.55,27.55v5.72Z" />
        <path class="cls-2"
            d="M216.19,165.97l-73.28-52.92v.02c-2.9-1.79-6.3-2.84-9.95-2.84-10.49,0-18.99,8.5-18.99,18.99v133.21h27.7v-114.75l74.52,53.89v-35.61Z" />
        <path class="cls-1"
            d="M152.82,206.6l73.28,52.92v-.02c2.9,1.79,6.3,2.84,9.95,2.84,10.49,0,18.99-8.5,18.99-18.99V110.13h-27.7v114.75l-74.52-53.89v35.61Z" />
        <polygon class="cls-2"
            points="113.97 67.31 123.15 67.31 123.15 92.62 131.78 92.62 131.78 67.31 140.97 67.31 140.97 59.36 113.97 59.36 113.97 67.31" />
        <path class="cls-2"
            d="M163.33,58.5c-10.41,0-17.69,7.12-17.69,17.31s7.44,17.48,17.69,17.48,17.82-7.35,17.82-17.48-7.33-17.31-17.82-17.31M163.37,85.21c-5.09,0-8.64-3.87-8.64-9.4s3.55-9.31,8.64-9.31,8.68,3.83,8.68,9.31-3.57,9.4-8.68,9.4" />
        <path class="cls-2"
            d="M210.91,79.66c0,2.53-.88,5.55-5.08,5.55s-5.08-3.02-5.08-5.55v-20.4h-8.63v20.61c0,7.9,5.64,13.41,13.71,13.41s13.71-5.52,13.71-13.41v-20.61h-8.63v20.4Z" />
        <polygon class="cls-2"
            points="239.7 59.26 231.07 59.26 231.07 92.52 252.44 92.52 252.44 84.49 239.7 84.49 239.7 59.26" />
        <path class="cls-2"
            d="M275.98,58.5c-10.41,0-17.69,7.12-17.69,17.31s7.44,17.48,17.69,17.48,17.82-7.35,17.82-17.48-7.33-17.31-17.82-17.31M276.03,85.21c-5.09,0-8.64-3.87-8.64-9.4s3.55-9.31,8.64-9.31,8.68,3.83,8.68,9.31-3.57,9.4-8.68,9.4" />
        <path class="cls-2"
            d="M321.94,79.66c0,2.53-.88,5.55-5.08,5.55s-5.08-3.02-5.08-5.55v-20.4h-8.63v20.61c0,7.9,5.64,13.41,13.71,13.41s13.71-5.52,13.71-13.41v-20.61h-8.63v20.4Z" />
        <path class="cls-2"
            d="M354.29,66.24c1.54,0,3.35.83,4.2,1.94l1.2,1.55,5.89-6.46-1.18-1.11c-2.43-2.3-6.11-3.67-9.85-3.67-6.07,0-12.61,3.27-12.61,10.45s6.12,9.26,8.73,10.08l.33.1c3.85,1.21,5.42,1.87,5.42,3.53,0,2.66-3.14,2.8-3.77,2.8-1.95,0-4.1-1.08-5.23-2.62l-1.1-1.5-6.32,5.9,1.02,1.2c2.58,3.04,6.89,4.86,11.54,4.86,7.52,0,12.57-4.5,12.57-11.21,0-7.28-6.45-9.27-9.92-10.33-3.75-1.17-4.55-1.71-4.55-3.04,0-2.43,3.5-2.46,3.64-2.46" />
        <polygon class="cls-2"
            points="386.36 84.49 386.36 79.32 400.11 79.32 400.11 71.54 386.36 71.54 386.36 67.21 400.87 67.21 400.87 59.26 377.73 59.26 377.73 92.52 401.63 92.52 401.63 84.49 386.36 84.49" />
    </g>
    <g>
        <path class="cls-1"
            d="M603.27,128.51h-36.7c0-6.19.09-18.38.09-18.38h2.33s32.99.03,49.49-.04c2.61-.01,3.93.36,4.27,3.57,1.86,17.46-1.09,34.4-5.67,51.05-3,10.91-7.56,21.38-10.76,32.25-3.43,11.65-6.62,23.42-8.91,35.34-1.91,9.92-2.37,20.13-3.49,30.47h-19.16c0-2.71-.22-5.48.04-8.21.71-7.33,1.24-14.71,2.56-21.94,1.84-10.05,3.76-20.15,6.69-29.92,3.56-11.91,8.34-23.44,12.32-35.23,4-11.86,6.44-24.08,7.13-36.61.04-.67-.12-1.34-.22-2.35Z" />
        <path class="cls-1"
            d="M481.11,165.55l42.11,89.72h0c1.76,4.28,6.22,7.5,10.78,7.5q10.97,0,10.97-7.5h0v-1.48s0,0,0,0l-.05-133.75s0,.02,0,.03c0-.01,0-.03,0-.04,0-5.52-5.46-9.94-12.2-9.99-8.7-.07-8.5-.02-8.5,10.05,0,.02,0-.02,0,0,0,0,0,0,0,0v72.68c-.01,2.26,0,9.47,0,13.84l-42.16-88.51h0c-1.73-4.08-5.92-8.07-10.97-8.05q-11.08.03-11.08,8.13h0l.06,134.59h0s0,.02,0,.03c0,5.52,5.46,9.99,12.2,10q8.7,0,8.7-10" />
    </g>
</svg>
